<svg xmlns="http://www.w3.org/2000/svg" xmlns:xlink="http://www.w3.org/1999/xlink" version="1.1" width="256" height="256" viewBox="0 0 256 256" xml:space="preserve">

<defs>
</defs>
<g style="stroke: none; stroke-width: 0; stroke-dasharray: none; stroke-linecap: butt; stroke-linejoin: miter; stroke-miterlimit: 10; fill: none; fill-rule: nonzero; opacity: 1;" transform="translate(1.4065934065934016 1.4065934065934016) scale(2.81 2.81)" >
	<path d="M 85.687 66.088 h -2.755 v -4 h 2.755 c 0.173 0 0.313 -0.141 0.313 -0.313 V 47.326 c 0 -0.076 -0.028 -0.149 -0.079 -0.207 L 71.512 30.911 c -0.059 -0.066 -0.145 -0.105 -0.234 -0.105 H 58.633 v 31.282 h 11.295 v 4 H 54.633 V 26.806 h 16.645 c 1.23 0 2.406 0.527 3.224 1.447 L 88.91 44.461 C 89.612 45.25 90 46.268 90 47.326 v 14.448 C 90 64.153 88.065 66.088 85.687 66.088 z" style="stroke: none; stroke-width: 1; stroke-dasharray: none; stroke-linecap: butt; stroke-linejoin: miter; stroke-miterlimit: 10; fill: rgb(0,0,0); fill-rule: nonzero; opacity: 1;" transform=" matrix(1 0 0 1 0 0) " stroke-linecap="round" />
	<path d="M 58.633 66.088 H 29.019 v -4 h 25.614 V 22.155 c 0 -2.394 -1.468 -4.417 -3.205 -4.417 H 7.206 C 5.468 17.739 4 19.761 4 22.155 v 38.84 c 0 0.705 0.383 1.093 0.51 1.093 h 11.515 v 4 H 4.51 c -2.487 0 -4.51 -2.284 -4.51 -5.093 v -38.84 c 0 -4.641 3.232 -8.417 7.206 -8.417 h 44.222 c 3.973 0 7.205 3.775 7.205 8.417 V 66.088 z" style="stroke: none; stroke-width: 1; stroke-dasharray: none; stroke-linecap: butt; stroke-linejoin: miter; stroke-miterlimit: 10; fill: rgb(0,0,0); fill-rule: nonzero; opacity: 1;" transform=" matrix(1 0 0 1 0 0) " stroke-linecap="round" />
	<path d="M 76.43 72.262 c -4.688 0 -8.502 -3.814 -8.502 -8.503 s 3.813 -8.502 8.502 -8.502 s 8.502 3.813 8.502 8.502 S 81.118 72.262 76.43 72.262 z M 76.43 59.257 c -2.482 0 -4.502 2.02 -4.502 4.502 c 0 2.483 2.02 4.503 4.502 4.503 s 4.502 -2.02 4.502 -4.503 C 80.932 61.276 78.912 59.257 76.43 59.257 z" style="stroke: none; stroke-width: 1; stroke-dasharray: none; stroke-linecap: butt; stroke-linejoin: miter; stroke-miterlimit: 10; fill: rgb(0,0,0); fill-rule: nonzero; opacity: 1;" transform=" matrix(1 0 0 1 0 0) " stroke-linecap="round" />
	<path d="M 22.517 72.262 c -4.688 0 -8.502 -3.814 -8.502 -8.503 s 3.814 -8.502 8.502 -8.502 c 4.688 0 8.502 3.813 8.502 8.502 S 27.205 72.262 22.517 72.262 z M 22.517 59.257 c -2.482 0 -4.502 2.02 -4.502 4.502 c 0 2.483 2.02 4.503 4.502 4.503 s 4.502 -2.02 4.502 -4.503 C 27.019 61.276 24.999 59.257 22.517 59.257 z" style="stroke: none; stroke-width: 1; stroke-dasharray: none; stroke-linecap: butt; stroke-linejoin: miter; stroke-miterlimit: 10; fill: rgb(0,0,0); fill-rule: nonzero; opacity: 1;" transform=" matrix(1 0 0 1 0 0) " stroke-linecap="round" />
	<path d="M 88 48.447 H 67.664 c -2.244 0 -4.069 -1.825 -4.069 -4.069 V 28.806 h 4 v 15.573 L 88 44.447 V 48.447 z" style="stroke: none; stroke-width: 1; stroke-dasharray: none; stroke-linecap: butt; stroke-linejoin: miter; stroke-miterlimit: 10; fill: rgb(0,0,0); fill-rule: nonzero; opacity: 1;" transform=" matrix(1 0 0 1 0 0) " stroke-linecap="round" />
</g>
</svg>