<svg xmlns="http://www.w3.org/2000/svg" xmlns:xlink="http://www.w3.org/1999/xlink" version="1.1" width="256" height="256" viewBox="0 0 256 256" xml:space="preserve">

<defs>
</defs>
<g style="stroke: none; stroke-width: 0; stroke-dasharray: none; stroke-linecap: butt; stroke-linejoin: miter; stroke-miterlimit: 10; fill: none; fill-rule: nonzero; opacity: 1;" transform="translate(1.4065934065934016 1.4065934065934016) scale(2.81 2.81)" >
	<path d="M 45 71.892 c -2.002 0 -4.004 -0.729 -5.564 -2.187 c -1.088 -1.017 -2.647 -1.371 -4.07 -0.929 c -4.077 1.276 -8.479 -0.849 -10.026 -4.829 c -0.54 -1.388 -1.79 -2.386 -3.264 -2.603 c -4.224 -0.621 -7.272 -4.443 -6.938 -8.699 c 0.116 -1.486 -0.578 -2.927 -1.812 -3.762 c -3.536 -2.393 -4.624 -7.158 -2.476 -10.848 c 0.749 -1.288 0.749 -2.887 0 -4.175 c -2.148 -3.69 -1.06 -8.456 2.476 -10.849 c 1.234 -0.835 1.928 -2.276 1.812 -3.761 c -0.334 -4.256 2.714 -8.078 6.938 -8.7 c 1.474 -0.217 2.724 -1.214 3.264 -2.603 c 1.546 -3.98 5.949 -6.102 10.026 -4.828 c 1.423 0.444 2.98 0.088 4.069 -0.929 c 3.12 -2.914 8.009 -2.914 11.129 0 l 0 0 c 1.089 1.016 2.646 1.373 4.07 0.929 c 4.071 -1.273 8.479 0.847 10.026 4.828 c 0.539 1.389 1.789 2.386 3.263 2.603 c 4.224 0.622 7.272 4.444 6.938 8.7 c -0.116 1.485 0.577 2.926 1.812 3.761 c 3.537 2.393 4.624 7.158 2.476 10.849 c -0.749 1.287 -0.749 2.888 0 4.175 c 2.149 3.691 1.061 8.456 -2.477 10.848 c -1.233 0.835 -1.927 2.277 -1.811 3.762 c 0.334 4.256 -2.714 8.078 -6.938 8.699 c -1.474 0.217 -2.724 1.215 -3.263 2.603 c -1.547 3.98 -5.951 6.103 -10.026 4.829 c -1.421 -0.444 -2.982 -0.089 -4.069 0.929 C 49.004 71.163 47.002 71.892 45 71.892 z M 36.596 64.588 c 2.039 0 4.042 0.765 5.571 2.195 c 1.589 1.483 4.076 1.483 5.666 0 c 2.136 -1.998 5.201 -2.698 7.992 -1.825 c 2.078 0.647 4.319 -0.433 5.106 -2.458 c 1.059 -2.727 3.515 -4.686 6.41 -5.112 c 2.151 -0.316 3.702 -2.262 3.532 -4.429 c -0.229 -2.916 1.135 -5.747 3.558 -7.388 c 1.801 -1.218 2.355 -3.644 1.261 -5.524 c -1.471 -2.529 -1.471 -5.67 0 -8.199 c 1.094 -1.879 0.54 -4.306 -1.261 -5.524 c -2.423 -1.64 -3.787 -4.47 -3.558 -7.387 c 0.17 -2.167 -1.381 -4.113 -3.532 -4.43 c -2.895 -0.426 -5.351 -2.385 -6.41 -5.112 c -0.787 -2.027 -3.03 -3.107 -5.105 -2.458 c -2.794 0.872 -5.854 0.173 -7.993 -1.825 l 0 0 c -1.588 -1.484 -4.078 -1.484 -5.667 0 c -2.138 1.998 -5.199 2.696 -7.993 1.825 c -2.079 -0.651 -4.318 0.432 -5.105 2.458 c -1.06 2.727 -3.516 4.686 -6.41 5.112 c -2.151 0.317 -3.703 2.263 -3.533 4.43 c 0.229 2.917 -1.134 5.747 -3.557 7.387 c -1.8 1.218 -2.354 3.645 -1.261 5.524 c 1.472 2.529 1.472 5.67 0 8.199 c -1.093 1.879 -0.54 4.305 1.26 5.524 c 2.423 1.64 3.786 4.471 3.558 7.388 c -0.17 2.167 1.382 4.113 3.533 4.429 c 2.895 0.426 5.351 2.385 6.41 5.112 c 0.787 2.027 3.03 3.106 5.105 2.458 C 34.968 64.709 35.785 64.588 36.596 64.588 z" style="stroke: none; stroke-width: 1; stroke-dasharray: none; stroke-linecap: butt; stroke-linejoin: miter; stroke-miterlimit: 10; fill: rgb(0,0,0); fill-rule: nonzero; opacity: 1;" transform=" matrix(1 0 0 1 0 0) " stroke-linecap="round" />
	<path d="M 45 61.378 c -14.023 0 -25.43 -11.408 -25.43 -25.43 S 30.977 10.517 45 10.517 c 14.022 0 25.43 11.408 25.43 25.43 S 59.022 61.378 45 61.378 z M 45 14.518 c -11.817 0 -21.43 9.613 -21.43 21.43 c 0 11.817 9.613 21.43 21.43 21.43 s 21.43 -9.613 21.43 -21.43 C 66.43 24.131 56.817 14.518 45 14.518 z" style="stroke: none; stroke-width: 1; stroke-dasharray: none; stroke-linecap: butt; stroke-linejoin: miter; stroke-miterlimit: 10; fill: rgb(0,0,0); fill-rule: nonzero; opacity: 1;" transform=" matrix(1 0 0 1 0 0) " stroke-linecap="round" />
	<path d="M 40.939 49.311 c -1.084 0 -2.167 -0.412 -2.992 -1.237 l -7.638 -7.638 c -2.223 -2.223 -2.223 -5.84 0 -8.062 s 5.839 -2.223 8.062 0 l 2.405 2.405 c 0.091 0.09 0.236 0.09 0.326 0 l 10.527 -10.527 c 2.221 -2.223 5.838 -2.223 8.062 0 l 0.001 0.001 c 2.221 2.222 2.221 5.839 0 8.061 l -15.761 15.76 C 43.106 48.899 42.023 49.311 40.939 49.311 z M 34.341 34.704 c -0.436 0 -0.871 0.166 -1.203 0.497 c -0.663 0.663 -0.663 1.742 0 2.406 l 7.638 7.638 c 0.089 0.09 0.236 0.09 0.327 0 l 15.76 -15.76 c 0.662 -0.663 0.662 -1.742 0 -2.406 c -0.664 -0.662 -1.743 -0.663 -2.406 0 L 43.931 37.606 c -0.798 0.799 -1.862 1.24 -2.992 1.24 c -1.13 0 -2.194 -0.44 -2.993 -1.24 l -2.404 -2.405 C 35.211 34.87 34.776 34.704 34.341 34.704 z" style="stroke: none; stroke-width: 1; stroke-dasharray: none; stroke-linecap: butt; stroke-linejoin: miter; stroke-miterlimit: 10; fill: rgb(0,0,0); fill-rule: nonzero; opacity: 1;" transform=" matrix(1 0 0 1 0 0) " stroke-linecap="round" />
	<path d="M 62.284 90.004 c -0.628 0 -1.259 -0.129 -1.854 -0.391 L 47.57 83.959 c -1.632 -0.719 -3.507 -0.719 -5.139 0 L 29.57 89.613 c -1.428 0.627 -3.06 0.492 -4.366 -0.359 c -1.306 -0.853 -2.085 -2.292 -2.085 -3.852 v -24.89 h 4 v 24.89 c 0 0.282 0.17 0.436 0.272 0.502 c 0.102 0.066 0.311 0.158 0.57 0.047 l 12.861 -5.654 c 2.656 -1.168 5.702 -1.168 8.358 0 l 12.861 5.654 c 0.26 0.113 0.469 0.02 0.57 -0.047 s 0.272 -0.22 0.272 -0.502 v -24.89 h 4 v 24.89 c 0 1.56 -0.779 2.999 -2.085 3.852 C 64.035 89.751 63.162 90.004 62.284 90.004 z" style="stroke: none; stroke-width: 1; stroke-dasharray: none; stroke-linecap: butt; stroke-linejoin: miter; stroke-miterlimit: 10; fill: rgb(0,0,0); fill-rule: nonzero; opacity: 1;" transform=" matrix(1 0 0 1 0 0) " stroke-linecap="round" />
</g>
</svg>